<?xml version="1.0" encoding="utf-8"?>
<!-- Svg Vector Icons : http://www.onlinewebfonts.com/icon -->
<!DOCTYPE svg PUBLIC "-//W3C//DTD SVG 1.1//EN" "http://www.w3.org/Graphics/SVG/1.1/DTD/svg11.dtd">
<svg version="1.1" xmlns="http://www.w3.org/2000/svg" xmlns:xlink="http://www.w3.org/1999/xlink" x="0px" y="0px" viewBox="0 0 1000 1000" enable-background="new 0 0 1000 1000" xml:space="preserve">
<metadata> Svg Vector Icons : http://www.onlinewebfonts.com/icon </metadata>
<g><path fill="#636262" d="M885,10H255c-57.9,0-105,47.1-105,105v105H80c-38.7,0-70,31.3-70,70v420c0,38.7,31.3,70,70,70h70v105c0,57.9,47.1,105,105,105h630c57.9,0,105-47.1,105-105V115C990,57.1,942.9,10,885,10z M416.5,626.5h-83.8L290,563.2l-42.7,63.2h-83.8L247.3,500l-83.8-126.5h83.8l42.7,63.2l42.7-63.2h83.8L332.7,500L416.5,626.5z M920,885c0,19.3-15.7,35-35,35H255c-19.3,0-35-15.7-35-35V780h280c38.7,0,70-31.3,70-70v-70h245c19.3,0,35-15.7,35-35s-15.7-35-35-35H570v-70h245c19.3,0,35-15.7,35-35c0-19.3-15.7-35-35-35H570v-70h245c19.3,0,35-15.7,35-35c0-19.3-15.7-35-35-35H570c0-38.7-31.3-70-70-70H220V115c0-19.3,15.7-35,35-35h630c19.3,0,35,15.7,35,35V885z"/></g>
</svg>