<?xml version="1.0" encoding="UTF-8" standalone="no"?><svg xmlns:svg="http://www.w3.org/2000/svg" xmlns="http://www.w3.org/2000/svg" xmlns:xlink="http://www.w3.org/1999/xlink" version="1.0" width="32px" height="32px" viewBox="0 0 128 128" xml:space="preserve"><circle cx="64.13" cy="64.13" r="27.63" fill="#ffffff" fill-opacity="1"/><path d="M64.13 18.5A45.63 45.63 0 1 1 18.5 64.13 45.63 45.63 0 0 1 64.13 18.5zm0 7.85a37.78 37.78 0 1 1-37.78 37.78 37.78 37.78 0 0 1 37.78-37.78z" fill-rule="evenodd" fill="#ffffff" fill-opacity="1"/><g><path d="M95.25 17.4a56.26 56.26 0 0 0-76.8 13.23L12.1 26.2a64 64 0 0 1 87.6-15.17z" fill="#ffffff" fill-opacity="1"/><path d="M95.25 17.4a56.26 56.26 0 0 0-76.8 13.23L12.1 26.2a64 64 0 0 1 87.6-15.17z" fill="#ffffff" fill-opacity="1" transform="rotate(120 64 64)"/><path d="M95.25 17.4a56.26 56.26 0 0 0-76.8 13.23L12.1 26.2a64 64 0 0 1 87.6-15.17z" fill="#ffffff" fill-opacity="1" transform="rotate(240 64 64)"/></g></svg>