<?xml version="1.0" encoding="iso-8859-1"?>
<!-- Generator: Adobe Illustrator 16.0.0, SVG Export Plug-In . SVG Version: 6.00 Build 0)  -->
<!DOCTYPE svg PUBLIC "-//W3C//DTD SVG 1.1//EN" "http://www.w3.org/Graphics/SVG/1.1/DTD/svg11.dtd">
<svg version="1.1" id="Capa_1" xmlns="http://www.w3.org/2000/svg" xmlns:xlink="http://www.w3.org/1999/xlink" x="0px" y="0px"
	 width="600.838px" height="600.838px" viewBox="0 0 600.838 600.838" style="enable-background:new 0 0 600.838 600.838;"
	 xml:space="preserve">
<g>
	<g>
		<path fill="#4d4c4c" d="M58.641,429.14h41.768v103.451c0,32.059,26.082,58.139,58.14,58.139h283.74c32.059,0,58.139-26.08,58.139-58.139V429.14
			h41.77c32.059,0,58.141-26.082,58.141-58.139V163.446c0-32.058-26.082-58.14-58.141-58.14h-41.77V68.249
			c0-32.059-26.08-58.14-58.139-58.14H158.548c-32.059,0-58.14,26.082-58.14,58.14v37.058H58.64c-32.059,0-58.14,26.082-58.14,58.14
			v207.555C0.5,403.058,26.582,429.14,58.641,429.14z M43.34,163.446c0-8.45,6.85-15.3,15.3-15.3h41.768h21.42h21.42h314.339h21.42
			h21.42h41.77c8.449,0,15.299,6.85,15.299,15.3v207.555c0,8.449-6.85,15.299-15.299,15.299h-41.77v-31.514
			c0-32.059-26.08-58.141-58.139-58.141H158.548c-32.059,0-58.14,26.082-58.14,58.141V386.3H58.64c-8.45,0-15.3-6.85-15.3-15.299
			L43.34,163.446L43.34,163.446z M143.249,68.249c0-8.45,6.85-15.3,15.3-15.3h283.739c8.451,0,15.301,6.85,15.301,15.3v37.058
			H143.249V68.249z M457.588,429.14v103.451c0,8.449-6.85,15.299-15.299,15.299H158.548c-8.45,0-15.3-6.85-15.3-15.299V429.14
			v-21.42V386.3v-31.514c0-8.451,6.85-15.301,15.3-15.301h283.739c8.451,0,15.301,6.85,15.301,15.301V386.3v21.42V429.14
			L457.588,429.14z"/>
		<path fill="#4d4c4c" d="M442.289,591.229h-283.74c-32.334,0-58.64-26.306-58.64-58.639V429.64H58.641C26.307,429.64,0,403.334,0,371.001V163.446
			c0-32.334,26.306-58.64,58.64-58.64h41.268V68.249c0-32.334,26.306-58.64,58.64-58.64h283.741
			c32.334,0,58.639,26.306,58.639,58.64v36.558h41.27c32.335,0,58.641,26.306,58.641,58.64v207.555
			c0,32.333-26.306,58.639-58.641,58.639h-41.27v102.951C500.928,564.924,474.623,591.229,442.289,591.229z M58.64,105.806
			c-31.783,0-57.64,25.857-57.64,57.64v207.555c0,31.782,25.858,57.639,57.641,57.639h42.268v103.951
			c0,31.782,25.857,57.639,57.64,57.639h283.74c31.782,0,57.639-25.856,57.639-57.639V428.64h42.27
			c31.783,0,57.641-25.856,57.641-57.639V163.446c0-31.783-25.857-57.64-57.641-57.64h-42.27V68.249
			c0-31.783-25.856-57.64-57.639-57.64H158.548c-31.783,0-57.64,25.857-57.64,57.64v37.558H58.64z M442.289,548.39H158.548
			c-8.712,0-15.8-7.087-15.8-15.799V354.786c0-8.713,7.088-15.801,15.8-15.801h283.739c8.713,0,15.801,7.088,15.801,15.801v177.805
			C458.088,541.303,451.001,548.39,442.289,548.39z M158.548,339.985c-8.161,0-14.8,6.64-14.8,14.801v177.805
			c0,8.16,6.639,14.799,14.8,14.799h283.741c8.16,0,14.799-6.639,14.799-14.799V354.786c0-8.161-6.64-14.801-14.801-14.801H158.548z
			 M542.197,386.8h-42.27v-32.014c0-31.783-25.856-57.641-57.639-57.641H158.548c-31.783,0-57.64,25.857-57.64,57.641V386.8H58.64
			c-8.712,0-15.8-7.087-15.8-15.799l0-207.555c0-8.712,7.088-15.8,15.8-15.8h483.557c8.712,0,15.799,7.088,15.799,15.8v207.555
			C557.996,379.713,550.909,386.8,542.197,386.8z M500.928,385.8h41.27c8.16,0,14.799-6.639,14.799-14.799V163.446
			c0-8.161-6.639-14.8-14.799-14.8H58.641c-8.161,0-14.8,6.639-14.8,14.8l0,207.555c0,8.16,6.64,14.799,14.8,14.799h41.268v-31.014
			c0-32.335,26.306-58.641,58.64-58.641h283.741c32.334,0,58.639,26.306,58.639,58.641V385.8z M458.088,105.807H142.749V68.249
			c0-8.712,7.088-15.8,15.8-15.8h283.739c8.713,0,15.801,7.088,15.801,15.8V105.807z M143.749,104.807h313.339V68.249
			c0-8.161-6.64-14.8-14.801-14.8H158.548c-8.161,0-14.8,6.639-14.8,14.8V104.807z"/>
	</g>
	<g>
		<path fill="#4d4c4c" d="M429.131,227.533h48.801h8.113c11.83,0,21.42-9.59,21.42-21.42c0-6.564-2.957-12.436-7.605-16.365
			c-3.73-3.152-8.549-5.055-13.814-5.055h-7.174h-21.59h-28.15c-8.543,0-15.918,5.003-19.355,12.24
			c-1.322,2.783-2.064,5.895-2.064,9.18c0,4.552,1.424,8.77,3.846,12.24C415.428,223.9,421.854,227.533,429.131,227.533z"/>
		<path fill="#4d4c4c" d="M486.045,228.033h-56.914c-7.156,0-13.88-3.512-17.984-9.394c-2.574-3.688-3.936-8.02-3.936-12.526
			c0-3.283,0.711-6.444,2.113-9.395c3.614-7.609,11.389-12.525,19.807-12.525h56.914c5.168,0,10.188,1.837,14.137,5.173
			c4.946,4.18,7.783,10.284,7.783,16.747C507.965,218.2,498.132,228.033,486.045,228.033z M429.131,185.193
			c-8.034,0-15.454,4.692-18.904,11.954c-1.337,2.815-2.016,5.832-2.016,8.966c0,4.3,1.299,8.434,3.756,11.954
			c3.918,5.614,10.334,8.966,17.164,8.966h56.914c11.535,0,20.92-9.385,20.92-20.92c0-6.167-2.707-11.993-7.428-15.983
			c-3.769-3.184-8.561-4.937-13.492-4.937H429.131z"/>
	</g>
	<g>
		<path fill="#4d4c4c" d="M393.725,386.3c-3.523-2.543-7.846-4.047-12.521-4.047H219.634c-4.676,0-9,1.504-12.522,4.047
			c-5.388,3.891-8.898,10.221-8.898,17.373c0,1.385,0.136,2.736,0.387,4.047c1.893,9.895,10.587,17.373,21.033,17.373h161.569
			c10.445,0,19.141-7.479,21.033-17.373c0.25-1.311,0.387-2.662,0.387-4.047C402.623,396.521,399.113,390.19,393.725,386.3z"/>
		<path fill="#4d4c4c" d="M381.203,425.593H219.634c-10.501,0-19.554-7.478-21.524-17.779c-0.262-1.37-0.396-2.764-0.396-4.141
			c0-7.016,3.404-13.661,9.105-17.778c3.753-2.71,8.184-4.142,12.814-4.142h161.569c4.629,0,9.061,1.432,12.814,4.142
			c5.701,4.116,9.105,10.763,9.105,17.778c0,1.371-0.133,2.765-0.396,4.141C400.757,418.115,391.705,425.593,381.203,425.593z
			 M219.634,382.753c-4.419,0-8.648,1.366-12.229,3.952c-5.441,3.93-8.69,10.272-8.69,16.968c0,1.313,0.127,2.644,0.378,3.953
			c1.88,9.831,10.52,16.967,20.542,16.967h161.569c10.022,0,18.662-7.136,20.542-16.967c0.251-1.314,0.378-2.645,0.378-3.953
			c0-6.695-3.249-13.038-8.691-16.968c-3.582-2.586-7.811-3.952-12.229-3.952H219.634z"/>
	</g>
	<g>
		<path fill="#4d4c4c" d="M381.203,462.282H219.634c-11.83,0-21.42,9.59-21.42,21.42s9.59,21.42,21.42,21.42h161.569
			c11.83,0,21.42-9.59,21.42-21.42S393.033,462.282,381.203,462.282z"/>
		<path fill="#4d4c4c" d="M381.203,505.622H219.634c-12.087,0-21.92-9.833-21.92-21.92s9.833-21.92,21.92-21.92h161.569
			c12.087,0,21.92,9.833,21.92,21.92S393.29,505.622,381.203,505.622z M219.634,462.782c-11.535,0-20.92,9.385-20.92,20.92
			s9.385,20.92,20.92,20.92h161.569c11.535,0,20.92-9.385,20.92-20.92s-9.385-20.92-20.92-20.92H219.634z"/>
	</g>
</g>
<g>
</g>
<g>
</g>
<g>
</g>
<g>
</g>
<g>
</g>
<g>
</g>
<g>
</g>
<g>
</g>
<g>
</g>
<g>
</g>
<g>
</g>
<g>
</g>
<g>
</g>
<g>
</g>
<g>
</g>
</svg>
